
<svg xmlns="http://www.w3.org/2000/svg" viewBox="0 0 24 24" width="24" height="24" fill="#fff">
    <path d="M12 2.163c3.204 0 3.584.012 4.85.07 1.366.062 2.633.334 3.608 1.308.974.974 1.246 2.241 1.308 3.608.058 1.266.07 1.646.07 4.85s-.012 3.584-.07 4.85c-.062 1.366-.334 2.633-1.308 3.608-.974.974-2.241 1.246-3.608 1.308-1.266.058-1.646.07-4.85.07s-3.584-.012-4.85-.07c-1.366-.062-2.633-.334-3.608-1.308-.974-.974-1.246-2.241-1.308-3.608-.058-1.266-.07-1.646-.07-4.85s.012-3.584.07-4.85c.062-1.366.334-2.633 1.308-3.608.974-.974 2.241-1.246 3.608-1.308C8.416 2.175 8.796 2.163 12 2.163zm0-2.163C8.69 0 8.256.014 7.01.072 5.71.13 4.6.383 3.686 1.3 2.772 2.215 2.52 3.326 2.462 4.625 2.404 5.871 2.39 6.305 2.39 9.615s.014 3.744.072 4.99c.058 1.299.311 2.41 1.226 3.325.914.914 2.025 1.167 3.325 1.225 1.246.058 1.681.072 4.99.072s3.744-.014 4.99-.072c1.299-.058 2.41-.311 3.325-1.226.914-.914 1.167-2.025 1.225-3.325.058-1.246.072-1.681.072-4.99s-.014-3.744-.072-4.99c-.058-1.299-.311-2.41-1.225-3.325-.914-.914-2.025-1.167-3.325-1.225C15.744.014 15.31 0 12 0zm0 5.838a6.162 6.162 0 100 12.324 6.162 6.162 0 000-12.324zm0 10.175a4.013 4.013 0 110-8.026 4.013 4.013 0 010 8.026zm6.406-11.845a1.44 1.44 0 11-2.88 0 1.44 1.44 0 012.88 0z"/>
</svg>
