

<svg xmlns="http://www.w3.org/2000/svg" viewBox="0 0 24 24" width="24" height="24" fill="#fff">
    <path d="M23.954 4.569c-.885.385-1.83.645-2.825.76 1.014-.608 1.794-1.574 2.163-2.723-.949.564-2.002.974-3.127 1.195-.897-.959-2.178-1.559-3.594-1.559-2.717 0-4.92 2.203-4.92 4.917 0 .39.045.765.127 1.124-4.087-.205-7.713-2.165-10.141-5.144-.422.722-.664 1.561-.664 2.457 0 1.69.86 3.179 2.169 4.054-.799-.026-1.552-.245-2.208-.612v.062c0 2.364 1.685 4.342 3.918 4.791-.411.111-.845.171-1.292.171-.314 0-.621-.031-.922-.088.631 1.953 2.445 3.376 4.604 3.416-1.68 1.316-3.804 2.101-6.104 2.101-.395 0-.785-.023-1.17-.069 2.179 1.396 4.768 2.209 7.548 2.209 9.051 0 13.998-7.496 13.998-13.985 0-.21-.004-.42-.014-.63.961-.695 1.8-1.56 2.46-2.548l-.047-.02z"/>
</svg>
